<svg xmlns="http://www.w3.org/2000/svg" viewBox="0 0 32 32" width="32" height="32" style="image-rendering: pixelated; image-rendering: -moz-crisp-edges; image-rendering: crisp-edges;">
  <!-- 黑色背景 -->
  <rect width="32" height="32" fill="#000000"/>
  
  <!-- 土壤 - 棕色像素块 -->
  <rect x="10" y="26" width="12" height="6" fill="#8B4513"/>
  <rect x="11" y="27" width="10" height="4" fill="#A0522D"/>
  <rect x="12" y="28" width="8" height="2" fill="#CD853F"/>
  
  <!-- 茎 - 深绿色像素 -->
  <rect x="15" y="18" width="2" height="8" fill="#2D5016"/>
  <rect x="15" y="20" width="2" height="6" fill="#3A6B1F"/>
  
  <!-- 左叶子 - 鲜绿色像素 (像素艺术风格) -->
  <!-- 底层 -->
  <rect x="8" y="16" width="4" height="2" fill="#6BC028"/>
  <rect x="9" y="14" width="4" height="2" fill="#6BC028"/>
  <rect x="10" y="12" width="4" height="2" fill="#6BC028"/>
  <rect x="11" y="10" width="3" height="2" fill="#6BC028"/>
  <rect x="12" y="8" width="2" height="2" fill="#6BC028"/>
  
  <!-- 高光层 -->
  <rect x="9" y="16" width="2" height="1" fill="#7ED321"/>
  <rect x="10" y="14" width="2" height="1" fill="#7ED321"/>
  <rect x="11" y="12" width="2" height="1" fill="#7ED321"/>
  <rect x="12" y="10" width="2" height="1" fill="#7ED321"/>
  <rect x="12" y="8" width="1" height="1" fill="#A8E863"/>
  
  <!-- 右叶子 - 鲜绿色像素 (像素艺术风格) -->
  <!-- 底层 -->
  <rect x="20" y="16" width="4" height="2" fill="#6BC028"/>
  <rect x="19" y="14" width="4" height="2" fill="#6BC028"/>
  <rect x="18" y="12" width="4" height="2" fill="#6BC028"/>
  <rect x="18" y="10" width="3" height="2" fill="#6BC028"/>
  <rect x="18" y="8" width="2" height="2" fill="#6BC028"/>
  
  <!-- 高光层 -->
  <rect x="21" y="16" width="2" height="1" fill="#7ED321"/>
  <rect x="20" y="14" width="2" height="1" fill="#7ED321"/>
  <rect x="19" y="12" width="2" height="1" fill="#7ED321"/>
  <rect x="18" y="10" width="2" height="1" fill="#7ED321"/>
  <rect x="19" y="8" width="1" height="1" fill="#A8E863"/>
</svg>
